<?xml version="1.0" encoding="iso-8859-1"?>
<!-- Generator: Adobe Illustrator 19.0.0, SVG Export Plug-In . SVG Version: 6.00 Build 0)  -->
<svg version="1.1" id="Capa_1" xmlns="http://www.w3.org/2000/svg" xmlns:xlink="http://www.w3.org/1999/xlink" x="0px" y="0px"
	 viewBox="0 0 512 512" style="enable-background:new 0 0 512 512;" xml:space="preserve">
<path style="fill:#FFFFFF;" d="M504.163,204.956H75.755l0,0c0-17.313,14.034-31.347,31.347-31.347h365.714
	C490.129,173.609,504.163,187.644,504.163,204.956L504.163,204.956z"/>
<path style="fill:#EBE5DD;" d="M472.816,173.609h-21.42c17.312,0,31.347,14.035,31.347,31.347h21.42
	C504.163,187.644,490.128,173.609,472.816,173.609z"/>
<polygon style="fill:#FF6243;" points="91.429,204.956 60.082,311.536 7.837,356.466 7.837,434.834 504.163,434.834 
	504.163,204.956 "/>
<path style="fill:#91CC04;" d="M62.694,424.385c0-3.608,0.458-7.109,1.317-10.449H7.837v20.898H64.01
	C63.152,431.494,62.694,427.993,62.694,424.385z"/>
<g>
	<rect x="459.233" y="348.108" style="fill:#FFFFFF;" width="15.673" height="15.673"/>
	<rect x="459.233" y="379.455" style="fill:#FFFFFF;" width="15.673" height="15.673"/>
</g>
<rect x="252.865" y="413.937" style="fill:#91CC04;" width="251.298" height="20.898"/>
<rect x="483.265" y="413.937" style="fill:#79AB03;" width="20.898" height="20.898"/>
<rect x="483.265" y="309.447" style="fill:#D80027;" width="20.898" height="104.49"/>
<g>
	<rect x="158.824" y="204.957" style="fill:#FFFFFF;" width="94.041" height="229.878"/>
	<rect x="461.845" y="204.957" style="fill:#FFFFFF;" width="42.318" height="104.49"/>
</g>
<rect x="483.265" y="204.957" style="fill:#EBE5DD;" width="20.898" height="104.49"/>
<path style="fill:#5AAAE7;" d="M420.049,236.303H294.661c-11.542,0-20.898,9.356-20.898,20.898v73.143h167.184v-73.143
	C440.947,245.66,431.591,236.303,420.049,236.303z"/>
<rect x="420.049" y="262.427" style="fill:#1A6FB0;" width="20.898" height="67.918"/>
<path style="fill:#FFFFFF;" d="M440.947,257.201v5.224H273.763v-5.224c0-11.546,9.352-20.898,20.898-20.898h125.388
	C431.595,236.303,440.947,245.655,440.947,257.201z"/>
<path style="fill:#EBE5DD;" d="M440.947,257.201v5.224h-20.898v-5.224c0-11.546-9.352-20.898-20.898-20.898h20.898
	C431.595,236.303,440.947,245.655,440.947,257.201z"/>
<rect x="158.824" y="377.365" style="fill:#91CC04;" width="94.041" height="57.469"/>
<rect x="184.947" y="398.263" style="fill:#FFFFFF;" width="41.796" height="15.673"/>
<rect x="179.722" y="236.304" style="fill:#5AAAE7;" width="52.245" height="52.245"/>
<circle style="fill:#57565C;" cx="104.49" cy="424.386" r="41.796"/>
<circle style="fill:#FFFFFF;" cx="104.49" cy="424.386" r="15.673"/>
<circle style="fill:#57565C;" cx="410.122" cy="424.386" r="41.796"/>
<circle style="fill:#FFFFFF;" cx="410.122" cy="424.386" r="15.673"/>
<polygon style="fill:#5AAAE7;" points="134.792,228.989 134.792,304.221 88.816,304.221 110.947,228.989 "/>
<path style="fill:#FFDA44;" d="M331.88,162.565l-92.86-46.425l92.86-46.425C341.776,99.871,341.776,132.409,331.88,162.565z"/>
<path style="fill:#FF6243;" d="M354.295,184.058c18.013-43.488,18.013-92.349,0-135.837c-8.778,3.636-17.556,7.272-26.336,10.909
	c15.12,36.502,15.12,77.517,0,114.02C336.737,176.787,345.515,180.422,354.295,184.058z"/>
<rect x="281.6" y="108.304" style="fill:#FFFFFF;" width="15.673" height="15.673"/>
<rect x="273.763" y="379.455" width="41.796" height="15.673"/>
<rect x="273.763" y="359.08" width="41.796" height="15.673"/>
<rect x="216.294" y="301.61" width="15.673" height="15.673"/>
<rect x="119.118" y="327.733" width="15.673" height="15.673"/>
<rect x="332.278" y="426.998" width="15.673" height="15.673"/>
<path d="M171.886,228.466v67.918h67.918v-67.918L171.886,228.466L171.886,228.466z M224.131,280.711h-36.571V244.14h36.571V280.711z
	"/>
<path d="M104.49,400.875c-12.964,0-23.51,10.547-23.51,23.51s10.546,23.51,23.51,23.51S128,437.348,128,424.385
	C128,411.422,117.454,400.875,104.49,400.875z M104.49,432.221c-4.322,0-7.837-3.515-7.837-7.837s3.515-7.837,7.837-7.837
	s7.837,3.515,7.837,7.837C112.327,428.706,108.811,432.221,104.49,432.221z"/>
<path d="M410.122,400.875c-12.964,0-23.51,10.547-23.51,23.51s10.546,23.51,23.51,23.51c12.964,0,23.51-10.547,23.51-23.51
	C433.633,411.422,423.086,400.875,410.122,400.875z M410.122,432.221c-4.322,0-7.837-3.515-7.837-7.837s3.515-7.837,7.837-7.837
	s7.837,3.515,7.837,7.837C417.959,428.706,414.444,432.221,410.122,432.221z"/>
<path d="M105.084,221.152l-26.742,90.906h64.286v-90.906L105.084,221.152L105.084,221.152z M126.955,296.385H99.29l17.521-59.559
	h10.145v59.559H126.955z"/>
<path d="M472.816,165.773H368.894c11.134-39.753,8.685-81.816-7.359-120.55l-2.999-7.24l-40.817,16.905l2.999,7.241
	c0.506,1.219,0.988,2.445,1.459,3.673L221.5,116.14l60.623,30.311v19.322h-175.02c-21.606,0-39.184,17.577-39.184,39.184v7.837
	h13.036l-27.738,94.309L0,352.87v89.801h58.363c7.298,18.341,25.217,31.347,46.127,31.347s38.829-13.006,46.127-31.347h0.371
	h165.616v-15.673h-55.902v-5.224h99.857c-0.045,0.865-0.069,1.736-0.069,2.612c0,27.367,22.266,49.633,49.633,49.633
	c20.91,0,38.829-13.006,46.127-31.347H512V212.793v-7.837C512,183.351,494.423,165.773,472.816,165.773z M338.021,63.445
	l11.868-4.915c13.56,37.428,13.56,77.794,0,115.222l-11.868-4.915C350.286,134.582,350.286,97.698,338.021,63.445z M327.011,80.908
	c6.024,23.172,6.024,47.293,0,70.465l-70.465-35.232L327.011,80.908z M84.935,197.119c3.234-9.122,11.95-15.673,22.168-15.673
	h198.05v-15.673h-7.356v-11.486l24.381,12.19c-0.47,1.228-0.953,2.453-1.459,3.674l-2.999,7.241l40.817,16.905l2.999-7.24
	c0.771-1.862,1.499-3.734,2.208-5.611h109.074c10.217,0,18.934,6.552,22.168,15.673H85.565H84.935z M469.682,291.16h26.645v10.449
	h-26.645V291.16z M469.682,275.487v-10.449h26.645v10.449H469.682z M469.682,249.364v-10.449h26.645v10.449H469.682z
	 M166.661,212.793h78.367v156.735h-78.367V212.793z M15.673,426.997v-5.224h39.253c-0.045,0.865-0.069,1.736-0.069,2.612
	c0,0.877,0.024,1.747,0.069,2.612H15.673z M104.49,458.344c-18.725,0-33.959-15.234-33.959-33.959
	c0-18.726,15.235-33.959,33.959-33.959s33.959,15.234,33.959,33.959S123.214,458.344,104.49,458.344z M104.49,374.752
	c-20.91,0-38.829,13.006-46.127,31.347H15.673v-15.673h18.286v-15.673H15.673v-14.689l51.273-44.095l30.345-103.175h53.696v194.245
	C143.937,388.201,125.757,374.752,104.49,374.752z M190.171,426.997h-23.51v-41.796h78.367v41.796H190.171z M410.122,458.344
	c-18.725,0-33.959-15.234-33.959-33.959c0-18.726,15.235-33.959,33.959-33.959s33.959,15.234,33.959,33.959
	S428.847,458.344,410.122,458.344z M410.122,374.752c-20.91,0-38.829,13.006-46.127,31.347H260.702V212.793h193.306v104.49h42.318
	v88.816h-40.077C448.952,387.758,431.033,374.752,410.122,374.752z M459.685,426.997c0.045-0.865,0.07-1.736,0.07-2.612
	c0-0.877-0.024-1.747-0.07-2.612h36.641v5.224H459.685z M496.327,223.242h-26.645v-10.449h26.645V223.242z"/>
<path d="M420.049,228.466H294.661c-15.845,0-28.735,12.891-28.735,28.735v80.98h182.857v-80.98
	C448.784,241.357,435.894,228.466,420.049,228.466z M432.847,254.589h-67.655V244.14h54.857
	C426.357,244.14,431.634,248.635,432.847,254.589z M294.661,244.14h54.857v10.449h-67.655
	C283.076,248.635,288.353,244.14,294.661,244.14z M281.6,270.262h67.918v52.245H281.6V270.262z M365.192,322.507v-52.245h67.918
	v52.245H365.192z"/>
<rect x="309.812" y="123.978" width="15.673" height="15.673"/>
<rect x="309.812" y="92.631" style="fill:#FFFFFF;" width="15.673" height="15.673"/>
<g>
</g>
<g>
</g>
<g>
</g>
<g>
</g>
<g>
</g>
<g>
</g>
<g>
</g>
<g>
</g>
<g>
</g>
<g>
</g>
<g>
</g>
<g>
</g>
<g>
</g>
<g>
</g>
<g>
</g>
</svg>
